<?xml version="1.0" encoding="UTF-8"?>
<svg xmlns="http://www.w3.org/2000/svg" width="57" height="43" viewBox="0 0 57 43" fill="none">
  <path d="M19.6858 27.4934L14 27.0235L19.6858 26.5066C24.7137 25.6608 28.6608 21.7137 29.5066 16.6858L30.0235 11L30.5404 16.6858C31.3392 21.7137 35.2863 25.6608 40.3142 26.5066L46 27.0235L40.3142 27.4934C35.2863 28.3392 31.3392 32.2863 30.4934 37.3142L29.9765 43L29.5066 37.3142C28.6608 32.2863 24.7137 28.3392 19.6858 27.4934Z" fill="white"></path>
  <path d="M39.7313 10.8238L36 10.5154L39.7313 10.1762C43.0308 9.62115 45.6211 7.03084 46.1762 3.73128L46.5154 0L46.8546 3.73128C47.3789 7.03084 49.9692 9.62115 53.2687 10.1762L57 10.5154L53.2687 10.8238C49.9692 11.3789 47.3789 13.9692 46.8238 17.2687L46.4846 21L46.1762 17.2687C45.6211 13.9692 43.0308 11.3789 39.7313 10.8238Z" fill="white"></path>
  <path d="M2.84288 19.2467L0 19.0117L2.84288 18.7533C5.35683 18.3304 7.3304 16.3568 7.7533 13.8429L8.01175 11L8.27019 13.8429C8.6696 16.3568 10.6432 18.3304 13.1571 18.7533L16 19.0117L13.1571 19.2467C10.6432 19.6696 8.6696 21.6432 8.2467 24.1571L7.98825 27L7.7533 24.1571C7.3304 21.6432 5.35683 19.6696 2.84288 19.2467Z" fill="white"></path>
</svg>
